<svg width="22" height="18" viewBox="0 0 22 18" fill="none" xmlns="http://www.w3.org/2000/svg">
<path d="M19.3619 4.71242C19.2635 12.1323 14.5187 17.2145 7.43573 17.5337C4.51482 17.6674 2.39872 16.7239 0.557129 15.554C2.71595 15.8985 5.39288 15.0356 6.82456 13.81C4.70846 13.6042 3.45559 12.5271 2.86936 10.7937C3.48083 10.8994 4.12502 10.8714 4.70594 10.7483C2.79642 10.1091 1.43283 8.92893 1.36238 6.45593C1.89823 6.69989 2.45684 6.92923 3.19896 6.97444C1.7699 6.16158 0.71319 3.19015 1.92347 1.22527C4.04442 3.55 6.59567 5.44705 10.7849 5.70368C9.73312 1.20765 15.6911 -1.23042 18.1846 1.79137C19.2387 1.58744 20.0967 1.18753 20.922 0.752243C20.5823 1.79635 19.9281 2.526 19.1307 3.10971C20.0061 2.99153 20.7809 2.77762 21.4429 2.45054C21.0323 3.30349 20.1344 4.06837 19.3619 4.71242Z" fill="#00CA87"/>
</svg>
